<svg id="e8Olj5CRKB41" xmlns="http://www.w3.org/2000/svg" xmlns:xlink="http://www.w3.org/1999/xlink" viewBox="0 0 90 48" shape-rendering="geometricPrecision" text-rendering="geometricPrecision" project-id="a824aa86b83d441f88d885f4a8077aa4" export-id="3e36893ad4a24e8c928d01664c232ec8" cached="false">
<style><![CDATA[
#e8Olj5CRKB42_ts {animation: e8Olj5CRKB42_ts__ts 2000ms linear infinite normal forwards}@keyframes e8Olj5CRKB42_ts__ts { 0% {transform: translate(9.171675px,22.929749px) scale(0.014184,0.014184);animation-timing-function: cubic-bezier(0.42,0,1,1)} 25% {transform: translate(9.171675px,22.929749px) scale(1.032087,1.032087)} 100% {transform: translate(9.171675px,22.929749px) scale(1.032087,1.032087)}} #e8Olj5CRKB43 {animation: e8Olj5CRKB43_c_o 2000ms linear infinite normal forwards}@keyframes e8Olj5CRKB43_c_o { 0% {opacity: 0} 75% {opacity: 0;animation-timing-function: cubic-bezier(0.42,0,1,1)} 100% {opacity: 1}} #e8Olj5CRKB44 {animation: e8Olj5CRKB44_c_o 2000ms linear infinite normal forwards}@keyframes e8Olj5CRKB44_c_o { 0% {opacity: 0} 25% {opacity: 0;animation-timing-function: cubic-bezier(0.42,0,1,1)} 100% {opacity: 1}} #e8Olj5CRKB45_ts {animation: e8Olj5CRKB45_ts__ts 2000ms linear infinite normal forwards}@keyframes e8Olj5CRKB45_ts__ts { 0% {transform: translate(80.203552px,24.45855px) scale(0.011582,0.011582);animation-timing-function: cubic-bezier(0.42,0,1,1)} 25% {transform: translate(80.203552px,24.45855px) scale(1,1)} 100% {transform: translate(80.203552px,24.45855px) scale(1,1)}} #e8Olj5CRKB46 {animation: e8Olj5CRKB46_c_o 2000ms linear infinite normal forwards}@keyframes e8Olj5CRKB46_c_o { 0% {opacity: 0} 75% {opacity: 0;animation-timing-function: cubic-bezier(0.42,0,1,1)} 100% {opacity: 1}} #e8Olj5CRKB47 {animation: e8Olj5CRKB47_c_o 2000ms linear infinite normal forwards}@keyframes e8Olj5CRKB47_c_o { 0% {opacity: 0} 25% {opacity: 0;animation-timing-function: cubic-bezier(0.42,0,1,1)} 100% {opacity: 1}}
]]></style>
<defs><linearGradient id="e8Olj5CRKB42-fill" x1="22.4221" y1="21.7599" x2="0.533064" y2="21.4666" spreadMethod="pad" gradientUnits="userSpaceOnUse" gradientTransform="translate(0 0)"><stop id="e8Olj5CRKB42-fill-0" offset="0%" stop-color="#0644cd"/><stop id="e8Olj5CRKB42-fill-1" offset="100%" stop-color="#2158d5"/></linearGradient><linearGradient id="e8Olj5CRKB43-fill" x1="56" y1="5.86673" x2="9.6" y2="8.26673" spreadMethod="pad" gradientUnits="userSpaceOnUse" gradientTransform="translate(0 0)"><stop id="e8Olj5CRKB43-fill-0" offset="0%" stop-color="#0644cd"/><stop id="e8Olj5CRKB43-fill-1" offset="100%" stop-color="#2158d5"/></linearGradient><linearGradient id="e8Olj5CRKB44-fill" x1="77.7826" y1="24.48" x2="6.13349" y2="35.2" spreadMethod="pad" gradientUnits="userSpaceOnUse" gradientTransform="translate(0 0)"><stop id="e8Olj5CRKB44-fill-0" offset="0%" stop-color="#0644cd"/><stop id="e8Olj5CRKB44-fill-1" offset="100%" stop-color="#2158d5"/></linearGradient><linearGradient id="e8Olj5CRKB45-fill" x1="89.0665" y1="23.4667" x2="66.1331" y2="22.9333" spreadMethod="pad" gradientUnits="userSpaceOnUse" gradientTransform="translate(0 0)"><stop id="e8Olj5CRKB45-fill-0" offset="0%" stop-color="#dc984d"/><stop id="e8Olj5CRKB45-fill-1" offset="100%" stop-color="#bf8243"/></linearGradient><linearGradient id="e8Olj5CRKB46-fill" x1="46.569" y1="39.3864" x2="95.7331" y2="38.8" spreadMethod="pad" gradientUnits="userSpaceOnUse" gradientTransform="translate(0 0)"><stop id="e8Olj5CRKB46-fill-0" offset="0%" stop-color="#dc984d"/><stop id="e8Olj5CRKB46-fill-1" offset="100%" stop-color="#bf8243"/></linearGradient><linearGradient id="e8Olj5CRKB47-fill" x1="100.667" y1="0" x2="23.0668" y2="3.33334" spreadMethod="pad" gradientUnits="userSpaceOnUse" gradientTransform="translate(0 0)"><stop id="e8Olj5CRKB47-fill-0" offset="0%" stop-color="#bf8243"/><stop id="e8Olj5CRKB47-fill-1" offset="100%" stop-color="#dc984d"/></linearGradient></defs><g id="e8Olj5CRKB42_ts" transform="translate(9.171675,22.929749) scale(0.014184,0.014184)"><path d="M9.172355,31.6954c4.840792,0,8.764994-3.924291,8.764994-8.76505s-3.924202-8.76495-8.764994-8.76495-8.765006,3.924191-8.765006,8.76495s3.924223,8.76505,8.765006,8.76505Z" transform="translate(-9.171675,-22.929749)" fill="url(#e8Olj5CRKB42-fill)"/></g><path id="e8Olj5CRKB43" d="M7.79628,9.42689C6.57335,11.139,7.66039,11.635,8.35679,11.6689h7.33761c8.0713-6.80761,16.8832-3.41399,20.2802-.8662c1.9159,1.5083,3.9575.6285,4.7389,0c2.0382-2.60895.8492-4.68792,0-5.40129C25.916,-5.5642,12.6031,3.51606,7.79628,9.42689Z" opacity="0" fill="url(#e8Olj5CRKB43-fill)"/><path id="e8Olj5CRKB44" d="M7.79631,34.1911c-2.20127.1223-1.5966,1.5797-1.0191,2.293C13.0141,45.9415,23.0659,47.4566,27.3122,47.0319c-2.8365-.0849-6.6955-.2038.5605,0c7.2561.2038,14.1317-5.758,16.6624-8.7643L58.8536,20.8408c1.2229-1.8751.5096-3.7707,0-4.484-1.4675-2.2828-4.2463-1.4607-5.4522-.7644L41.8855,30.0128c-2.2013,3.0981-5.4352,5.8769-6.7771,6.879-9.0905,6.2777-17.8514.8153-21.0955-2.7007-1.155-.0509-4.01531-.1222-6.21659,0Z" opacity="0" fill="url(#e8Olj5CRKB44-fill)"/><g id="e8Olj5CRKB45_ts" transform="translate(80.203552,24.45855) scale(0.011582,0.011582)"><path d="M80.2035,33.2229c4.8404,0,8.7644-3.924,8.7644-8.7644s-3.924-8.7643-8.7644-8.7643-8.7643,3.9239-8.7643,8.7643s3.9239,8.7644,8.7643,8.7644Z" transform="translate(-80.203552,-24.45855)" fill="url(#e8Olj5CRKB45-fill)"/></g><path id="e8Olj5CRKB46" d="M81.7781,37.9909c1.2257-1.7102.1394-2.2079-.5569-2.243l-7.3375-.0118c-8.0823,6.7947-16.8887,3.387-20.2817.8337-1.9135-1.5113-3.9565-.6348-4.7388-.0075-2.0425,2.6057-.8568,4.6865-.0086,5.4012c14.7798,10.9893,28.1073,1.9305,32.9235-3.9726Z" opacity="0" fill="url(#e8Olj5CRKB46-fill)"/><path id="e8Olj5CRKB47" d="M80.7811,12.8827c2.2011-.1248,1.5947-1.5814,1.0164-2.2941-6.2481-9.45-16.3017-10.953249-20.5474-10.523627c2.8366.081586,6.6957.195935-.5605.000661-7.2564-.195275-14.1249,5.774606-16.6521,8.783946L29.7396,26.2932c-1.2208,1.8765-.5052,3.7713.0052,4.484c1.4702,2.2811,4.248,1.4558,5.4531.7579l11.499-14.4339c2.1976-3.1006,5.4283-5.8832,6.7689-6.8869c9.083-6.28843,17.8504-.83633,21.0987,2.6758c1.1551.0496,4.0154.1176,6.2166-.0074Z" opacity="0" fill="url(#e8Olj5CRKB47-fill)"/></svg>
